<svg width="46" height="41" viewBox="0 0 46 41" fill="none" xmlns="http://www.w3.org/2000/svg">
<path d="M23.0059 0.5C28.9698 0.507855 34.6872 2.89933 38.9041 7.1499C43.1209 11.4005 45.493 17.1631 45.5 23.1739H42.7497C42.9321 17.9035 41.0296 12.7759 37.4608 8.9191C33.8921 5.06236 28.9493 2.79241 23.72 2.60862C18.4906 2.42483 13.403 4.34225 9.57633 7.93908C6.25292 11.0629 4.11706 15.2312 3.49329 19.7261C3.33774 20.847 4.25379 21.788 5.38547 21.788H12.5622C13.3277 21.788 13.9482 22.4085 13.9482 23.1739V23.1739C13.9482 23.9394 13.3277 24.5599 12.5622 24.5599H1.88596C1.12051 24.5599 0.5 23.9394 0.5 23.1739V23.1739C0.507018 17.1611 2.8807 11.3966 7.10011 7.14571C11.3195 2.8948 17.0399 0.504713 23.0059 0.5ZM37.3875 21.788H32.3404V24.5599H37.3875C37.0794 28.0163 35.5551 31.2477 33.0898 33.6704C30.6246 36.0932 27.381 37.5475 23.9449 37.7708C20.5088 37.994 17.1067 36.9715 14.3533 34.8878C11.5998 32.8041 9.67638 29.7967 8.93051 26.4088H6.11543C6.91587 30.6472 9.25597 34.4323 12.6782 37.0241C16.1005 39.6159 20.3589 40.8281 24.6208 40.4236C28.8827 40.0192 32.8418 38.0273 35.7239 34.8372C38.6061 31.6472 40.2041 27.4884 40.2055 23.1739C40.2055 22.708 40.182 22.245 40.1466 21.788H37.3875ZM23.0059 5.83906C27.0091 5.84447 30.8854 7.25491 33.9688 9.82801C37.0522 12.4011 39.1502 15.9762 39.9022 19.939H37.0842C36.5861 17.7237 35.5773 15.6578 34.1396 13.9085L31.9635 16.0987L31.7073 16.3569L30.3233 17.7607L30.0289 18.0575L29.0571 17.0751C28.2625 16.2741 27.3191 15.6388 26.2808 15.2053C25.2426 14.7718 24.1297 14.5487 23.0059 14.5487C21.882 14.5487 20.7692 14.7718 19.7309 15.2053C18.6927 15.6388 17.7493 16.2741 16.9547 17.0751L15.98 18.0575L15.7297 17.8052L11.7956 13.8699L9.84629 11.9171L10.8062 10.9348C12.4023 9.31177 14.3031 8.02531 16.3976 7.15044C18.4922 6.27556 20.7386 5.82977 23.0059 5.83906ZM23.0059 8.61098C19.6338 8.60124 16.3662 9.78972 13.7774 11.9676L16.0212 14.229C18.0051 12.6491 20.4586 11.7876 22.9871 11.7833C25.5156 11.779 27.972 12.6321 29.9611 14.2053L32.1991 11.9468C29.6148 9.78762 26.3626 8.60754 23.0059 8.61098ZM17.5789 23.1294C17.5789 22.0512 17.8962 20.9971 18.4906 20.1005C19.0849 19.204 19.9298 18.5052 20.9182 18.0926C21.9066 17.6799 22.9942 17.572 24.0435 17.7823C25.0928 17.9927 26.0567 18.5119 26.8132 19.2744C27.5697 20.0368 28.0849 21.0083 28.2936 22.0658C28.5023 23.1234 28.3952 24.2196 27.9858 25.2157C27.5764 26.2119 26.883 27.0634 25.9935 27.6625C25.1039 28.2615 24.0581 28.5813 22.9882 28.5813C21.5541 28.5797 20.1791 28.0048 19.165 26.9827C18.1509 25.9606 17.5805 24.5749 17.5789 23.1294ZM20.3528 23.1294C20.3528 23.6583 20.5086 24.1753 20.8004 24.6149C21.0923 25.0545 21.5071 25.3968 21.9922 25.5985C22.4773 25.8002 23.0109 25.8522 23.5254 25.748C24.0399 25.6437 24.5121 25.3878 24.8821 25.0128C25.2522 24.6378 25.5034 24.1605 25.604 23.6414C25.7046 23.1223 25.65 22.5847 25.4471 22.0969C25.2443 21.6091 24.9023 21.193 24.4646 20.9013C24.0268 20.6096 23.513 20.4555 22.9882 20.4584C22.2879 20.4623 21.6176 20.7455 21.1238 21.246C20.6299 21.7464 20.3528 22.4236 20.3528 23.1294Z" fill="white"/>
</svg>
